<?xml version="1.0" encoding="utf-8"?>
<!-- Generator: Adobe Illustrator 24.3.0, SVG Export Plug-In . SVG Version: 6.00 Build 0)  -->
<svg version="1.1" xmlns="http://www.w3.org/2000/svg" xmlns:xlink="http://www.w3.org/1999/xlink" x="0px" y="0px"
	 viewBox="0 0 70.87 113.39" style="enable-background:new 0 0 70.87 113.39;" xml:space="preserve">
<style type="text/css">
	.st0{display:none;}
	.st1{display:inline;}
	.st2{fill:#5F391B;}
	.st3{display:inline;fill:#F9C2A9;}
	.st4{display:inline;fill:#292746;}
	.st5{display:inline;fill:#D3E1F0;}
	.st6{opacity:0.55;fill:#CE8C73;}
	.st7{display:inline;fill:#BFCDDA;}
	.st8{display:inline;fill:#F9C2A6;}
	.st9{display:inline;opacity:0.8;fill:#CE8C73;}
	.st10{display:inline;fill:#5F391B;}
	.st11{display:inline;opacity:0.55;fill:#CE8C73;}
	.st12{fill:#FFFFFF;}
	.st13{fill:#7D6857;}
	.st14{display:inline;fill:#FFFFFF;}
	.st15{display:inline;fill:url(#SVGID_1_);}
	.st16{display:inline;fill:url(#SVGID_2_);}
	.st17{fill:#5F3A1B;}
	.st18{fill:#F9C2A9;}
	.st19{fill:#020203;}
	.st20{fill:#2A2747;}
	.st21{fill:#D3E1F0;}
	.st22{opacity:0.55;fill:#CF8D74;enable-background:new    ;}
	.st23{fill:#C0CDDA;}
	.st24{fill:#F9C2A6;}
	.st25{opacity:0.8;fill:#CF8D74;enable-background:new    ;}
	.st26{fill:#7E6958;}
	.st27{fill:url(#SVGID_3_);}
	.st28{fill:url(#SVGID_4_);}
	.st29{fill:#9C2F45;}
	.st30{fill:#AA6E4D;}
	.st31{opacity:0.55;fill:#AA6E4D;}
	.st32{fill:#F2F2F2;}
	.st33{fill:#999999;}
	.st34{fill:#DA7A7F;}
	.st35{fill:#1A1A1A;}
	.st36{fill:#B03A59;}
	.st37{fill:url(#SVGID_5_);}
	.st38{fill:url(#SVGID_6_);}
	.st39{fill:url(#SVGID_7_);}
	.st40{fill:url(#SVGID_8_);}
	.st41{fill:url(#SVGID_9_);}
	.st42{fill:url(#SVGID_10_);}
</style>
<g id="Ebene_2" class="st0">
	<g class="st1">
		<path class="st2" d="M38.19,62.55c-0.39,0-0.77-0.02-1.14-0.04c1.89,2.2,4.74,3.28,6.84,4.21c2.14,0.95,6.79,1.74,9.49,1.31
			c-1.22-1.13-1.92-3.66-1.48-5.4c0.38-1.52,2.79-3.83,3.4-6.62c0.44-2,0.38-2.92-0.07-4.15C52.27,56.69,46.68,62.55,38.19,62.55z"
			/>
	</g>
	<path class="st3" d="M43.2,63.12c-0.12-1.24-0.21-5.55-0.21-6.38h-9.45c0,0.83-0.08,5.14-0.21,6.38c-0.08,0.76-0.25,1.24-0.55,1.64
		c0.94,3.63,3.1,8.62,5.51,13.52c2.4-4.87,4.54-9.83,5.49-13.46C43.47,64.4,43.28,63.91,43.2,63.12z"/>
	<path class="st1" d="M52.42,104.74c0.47,0.05,0.91,0.09,1.34,0.09C53.37,104.8,52.93,104.77,52.42,104.74z M41.78,102.3l-1.45-2.91
		l-0.42,1.97c-1.45,0.52-12.36,2.68-15.94,3.37c-0.02,0.28-0.05,0.59-0.09,0.93c3.17-0.3,13.6-1.77,16.86-2.23
		c1.75,0.39,8.85,2.23,11.8,2.47c-0.06-0.43-0.1-0.83-0.12-1.17C46.86,104.48,41.78,102.3,41.78,102.3z"/>
	<path class="st4" d="M19.61,124.68c0.47-1.87,4.05-15.42,4.36-19.93c-1.56,0.16-2.8,0.31-4.05-1.25
		c-1.25-1.56-3.08-5.71-3.63-11.52c-0.67-7.11,0.1-14.55,0.36-16.61c0.26-2.02,0.83-3.53,3.01-4.62c2.04-1.02,7.19-3.09,10.13-5.4
		c0.2-0.15,0.49,0.05,0.67,0.23c0.26,4.15,3.53,19.03,5.55,25.21c0.68,0.05,3.74,0,3.74,0l0.21,1.35
		c2.02-6.18,5.75-22.41,6.01-26.57c0.21-0.21,0.51-0.31,0.75-0.12c2.96,2.27,7.99,4.29,10.01,5.3c2.18,1.09,2.75,2.6,3.01,4.62
		c0.26,2.06,1.04,9.5,0.36,16.61c-0.55,5.81-2.39,9.97-3.63,11.52c-1.25,1.56-2.49,1.4-4.05,1.25c0.31,4.52,3.89,18.07,4.36,19.93"
		/>
	<path class="st5" d="M36.02,90.78c0.68,0.05,3.74,0,3.74,0l0.21,1.35c2.02-6.18,5.75-22.41,6.01-26.57
		c0.03-0.03,0.06-0.05,0.09-0.07c-0.7-0.75-1.15-1.1-2-1.78c-0.76,3.68-3.11,9.19-5.76,14.56c-2.65-5.37-5-10.88-5.76-14.56
		c-0.88,0.71-1.33,1.06-2.07,1.86C30.73,69.73,33.99,84.61,36.02,90.78z"/>
	<path class="st1" d="M50.58,92c0.64-3.12,2.67-12.22,3.08-13.73c0.23-0.85,0.73-1.09,0.49,0.13c-0.3,1.54-2.04,11.57-2.49,14.18
		c-0.17,0.95-0.46,1.41-1.66,1.21c-0.85-0.14-7.08-1.43-7.79-1.62c1.67,0.05,6.85,0.45,7.13,0.45C49.86,92.62,50.48,92.52,50.58,92z
		"/>
	<path class="st3" d="M39.96,92.13c0.17,1.7,0.41,4.29,0.56,5.94c2.6-0.52,5.84-1.2,7.89-1.92c1.49-0.52,4.94-1.77,4.63-3.35
		c-0.39-2.01-2.45-3.54-4.98-3.54c-2.14,0-4.11,1.31-5.12,1.82C41.95,91.58,41.33,92.04,39.96,92.13z"/>
	<g class="st1">
		<path class="st6" d="M52.7,93.88c-1.01-0.78-2.15-1.13-3.03-1.14c-0.36,0-0.7,0.03-1,0.1c-0.24,0.06-0.38,0.31-0.33,0.57
			c0.05,0.26,0.28,0.42,0.52,0.36h0c0.21-0.05,0.49-0.08,0.81-0.08c0.79-0.01,1.8,0.2,2.65,0.57l0,0
			C52.45,94.14,52.59,94.01,52.7,93.88z"/>
		<path class="st6" d="M47.67,90.4c-0.22,0.09-0.34,0.37-0.26,0.61c0.08,0.25,0.33,0.37,0.56,0.28h0c0.5-0.2,1.18-0.33,1.92-0.33
			c0.84,0,1.76,0.18,2.64,0.53l0,0c-0.21-0.33-0.47-0.62-0.76-0.89c-0.57-0.27-1.42-0.55-1.88-0.59
			C49.06,89.95,48.29,90.16,47.67,90.4z"/>
	</g>
	<path class="st7" d="M31.67,71.29c-0.4-1.6-0.54-4.46-0.5-6.42c-0.04,0.04-0.08,0.07-0.11,0.11c-0.08,1.61-0.06,4.2,0.21,6.04
		c0.06,0.32,0.12,0.64,0.18,0.98c1.35-0.26,4.03,0.98,5.25,3.13C35.33,72.55,33.02,71.03,31.67,71.29z"/>
	<path class="st7" d="M44.74,71.29c0.44-1.6,0.81-4.46,0.81-6.42c0.04,0.04,0.07,0.07,0.11,0.11c0.04,1.61-0.21,4.2-0.52,6.04
		c-0.07,0.32-0.14,0.64-0.21,0.98c-1.35-0.26-3.89,0.98-5.16,3.13C41.21,72.55,43.39,71.03,44.74,71.29z"/>
	<path class="st1" d="M25.88,91.05c-0.64-3.12-2.51-11.28-2.92-12.78c-0.23-0.85-0.73-1.09-0.49,0.13
		c0.3,1.54,1.87,10.62,2.33,13.23c0.17,0.95,0.46,1.41,1.67,1.21c0.85-0.14,7.08-1.43,7.79-1.62c-1.67,0.05-6.85,0.45-7.13,0.45
		C26.6,91.67,25.98,91.57,25.88,91.05z"/>
	<path class="st3" d="M33.14,91.32c-1.92,0.34-6.94,1.3-8.45,0.89c-1.51-0.41-2.88-1.17-3.7-2.74c-0.82-1.58-0.82-4.53,0.21-5.83
		c1.03-1.3,3.5-1.71,5.49-1.03C29.3,83.51,31.42,84.8,33.14,91.32z"/>
	<g class="st1">
		<path class="st6" d="M23.27,84.3c0.78,0,1.54,0.14,2.11,0.48c0.24,0.14,0.55,0.06,0.69-0.18c0.14-0.24,0.06-0.55-0.18-0.69
			c-0.79-0.46-1.72-0.62-2.62-0.62c-0.67,0-1.71,0.2-2.3,0.69c-0.14,0.25-0.26,0.52-0.35,0.83l0,0
			C21.24,84.55,22.27,84.3,23.27,84.3z"/>
		<path class="st6" d="M23.1,87.26c0.58,0,1.13,0.09,1.58,0.31c0.25,0.12,0.55,0.01,0.67-0.24c0.12-0.25,0.01-0.55-0.24-0.67
			c-0.63-0.29-1.32-0.4-2.01-0.4c-0.91,0-2,0.29-2.69,0.89c0.02,0.22,0.04,0.44,0.08,0.65l0,0C21.21,87.5,22.18,87.25,23.1,87.26z"
			/>
		<path class="st6" d="M23.68,90.41c0.46,0,0.89,0.07,1.27,0.22c0.26,0.1,0.55-0.03,0.65-0.29c0.1-0.26-0.03-0.55-0.28-0.65
			c-0.52-0.2-1.08-0.28-1.63-0.28c-0.76,0-1.71,0.23-2.29,0.72c0.16,0.21,0.32,0.4,0.5,0.58c0,0,0,0,0,0
			C22.47,90.52,23.09,90.4,23.68,90.41z"/>
	</g>
	<path class="st8" d="M38.19,62.55c10.9,0,17.02-9.65,18.92-14.41c1.13,1.33,2.64,1.41,4.21-0.53c1.68-2.08,3.69-6.9,3.89-10.02
		c0.18-2.88-1.74-4.16-3.42-3.7c0.35-4.24,0.52-9.38-1.81-16.7C57.31,8.8,47.44,2.95,38.19,2.95c-9.25,0-19.12,5.86-21.79,14.24
		c-2.32,7.31-2.15,12.46-1.8,16.7c-1.68-0.46-3.6,0.81-3.42,3.7c0.19,3.12,2.21,7.94,3.88,10.02c1.57,1.95,3.08,1.87,4.21,0.53
		C21.17,52.9,27.29,62.55,38.19,62.55z"/>
	<path class="st9" d="M45.49,50.63L45.49,50.63c0.2-0.2,0.2-0.53,0-0.74l0,0c-0.2-0.21-0.54-0.21-0.74,0l0,0
		c-1.15,1.17-3.87,2.3-6.56,2.29l0,0c-2.7,0.01-5.41-1.12-6.56-2.28l0,0c-0.2-0.21-0.54-0.21-0.74,0l0,0c-0.2,0.2-0.2,0.53,0,0.74
		l0,0c1.46,1.44,4.32,2.58,7.3,2.59l0,0C41.17,53.21,44.03,52.07,45.49,50.63L45.49,50.63z"/>
	<path class="st10" d="M25.05,29.92c1.31-1.15,2.99-1.6,4.5-1.6l0,0c1.29-0.01,2.44,0.35,2.99,0.76l0,0
		c0.28,0.2,0.67,0.14,0.88-0.14l0,0c0.2-0.28,0.14-0.67-0.14-0.88l0,0c-0.89-0.63-2.22-0.99-3.73-1l0,0c-1.74,0-3.73,0.52-5.32,1.9
		l0,0c-0.26,0.23-0.29,0.62-0.06,0.88l0,0c0.12,0.14,0.3,0.22,0.47,0.22l0,0C24.79,30.07,24.94,30.02,25.05,29.92L25.05,29.92z"/>
	<path class="st10" d="M52.21,29.86c0.23-0.26,0.2-0.66-0.06-0.89l0,0c-1.59-1.39-3.57-1.9-5.32-1.9l0,0c-1.5,0.01-2.84,0.36-3.73,1
		l0,0c-0.28,0.2-0.34,0.6-0.14,0.88l0,0c0.2,0.28,0.6,0.34,0.88,0.14l0,0c0.56-0.41,1.71-0.77,3-0.76l0,0c1.51,0,3.19,0.45,4.5,1.59
		l0,0c0.12,0.1,0.27,0.16,0.42,0.16l0,0C51.92,30.07,52.09,30,52.21,29.86L52.21,29.86z"/>
	<path class="st10" d="M38.19,0.51c16.71,0,23.3,12.25,24.93,20.08c1.12,5.4,0.18,12.23-0.06,13.28c-0.45-0.15-0.78-0.13-1.28,0.02
		c-1.71,1.16-2.64,2.29-3.77,4.01c0.29-0.96,0.15-2.72-0.35-4.27c-0.39-1.2-0.77-3.05-1.03-5.02c-6.13-1.42-11.84-5.86-16.84-9.55
		c1.57,2.03,4.79,4.93,7.29,6.56c-8.24-3.48-12.08-7.49-14.25-10.71c-1.87,3.51-7.84,8.27-12.8,10.28c-0.09,3.05-0.7,6.56-1.31,8.45
		c-0.5,1.55-0.64,3.31-0.35,4.27c-1.13-1.71-2.07-2.85-3.77-4.01c-0.5-0.15-0.83-0.17-1.28-0.02c-0.23-1.04-1.18-7.87-0.06-13.28
		C14.89,12.75,21.48,0.51,38.19,0.51z"/>
	<path class="st11" d="M38.19,46.94c0.58,0,1.49-0.01,1.92-0.08c0.54-0.09,1.03-0.46,0.38-1.3c-0.65-0.84-1.85-1.3-2.3-1.3
		c-0.45,0-1.65,0.46-2.3,1.3c-0.65,0.84-0.16,1.21,0.38,1.3C36.7,46.93,37.61,46.94,38.19,46.94z"/>
	<path class="st11" d="M12.99,37.27c0.26-1.12,1.34-1.46,2.5-0.13c1.16,1.34,1.92,2.9,2.03,3.31c0.12,0.41-0.23,1.02,0.06,1.68
		c0.29,0.65,0.8,0.64,1.03,1.49c0.17,0.62,0.24,1.69,0.08,2.05c-0.05,0.12-0.24,0.07-0.31-0.24c-0.15-0.73-0.23-1.94-0.84-2.36
		c-0.65-0.44-0.95-1.66-1.05-2.31c-0.09-0.58-0.42-1.04-0.96-1.68c-0.47-0.55-1.35-0.76-1.77-0.44
		C13.07,39.17,12.79,38.13,12.99,37.27z"/>
	<path class="st11" d="M63.39,37.27c-0.26-1.12-1.34-1.46-2.5-0.13c-1.16,1.34-1.92,2.9-2.03,3.31c-0.12,0.41,0.23,1.02-0.06,1.68
		c-0.29,0.65-0.8,0.64-1.03,1.49c-0.17,0.62-0.24,1.69-0.08,2.05c0.05,0.12,0.24,0.07,0.31-0.24c0.15-0.73,0.23-1.94,0.84-2.36
		c0.65-0.44,0.95-1.66,1.05-2.31c0.09-0.58,0.42-1.04,0.96-1.68c0.47-0.55,1.35-0.76,1.77-0.44C63.31,39.17,63.59,38.13,63.39,37.27
		z"/>
	<g class="st1">
		<path class="st12" d="M43.75,37.96c0,2.44,1.69,4.41,3.77,4.41c2.08,0,3.77-1.98,3.77-4.41c0-2.44-1.69-4.41-3.77-4.41
			C45.44,33.55,43.75,35.52,43.75,37.96z"/>
		<g>
			<path class="st13" d="M44.55,37.97c0,1.89,1.27,3.43,2.84,3.43c1.57,0,2.84-1.53,2.84-3.43c0-1.89-1.27-3.42-2.84-3.42
				C45.82,34.55,44.55,36.08,44.55,37.97z"/>
			<path d="M45.27,37.97c0,1.41,0.95,2.55,2.12,2.55c1.17,0,2.12-1.14,2.12-2.55c0-1.41-0.95-2.55-2.12-2.55
				C46.22,35.42,45.27,36.56,45.27,37.97z"/>
		</g>
		<path class="st12" d="M49.18,36.71c0,0.38-0.3,0.68-0.68,0.68c-0.38,0-0.68-0.3-0.68-0.68c0-0.38,0.3-0.68,0.68-0.68
			C48.87,36.03,49.18,36.33,49.18,36.71z"/>
		<path class="st2" d="M48.97,33.84c-0.45-0.18-0.95-0.29-1.45-0.29c-1.83,0-3.36,1.53-3.7,3.56c0.41-1.53,1.91-2.66,3.7-2.66
			c1.79,0,3.29,1.14,3.7,2.67c-0.11-0.67-0.36-1.28-0.7-1.8l0.01,0c0,0,0.01,0,0.01,0c0.61,0.08,1.37-0.17,2.19-1.19
			C51.07,34.67,49.73,34.15,48.97,33.84z"/>
	</g>
	<g class="st1">
		<path class="st12" d="M32.76,37.96c0,2.44-1.69,4.41-3.77,4.41c-2.08,0-3.77-1.98-3.77-4.41c0-2.44,1.69-4.41,3.77-4.41
			C31.07,33.55,32.76,35.52,32.76,37.96z"/>
		<g>
			<path class="st13" d="M31.96,37.97c0,1.89-1.27,3.43-2.84,3.43c-1.57,0-2.84-1.53-2.84-3.43c0-1.89,1.27-3.42,2.84-3.42
				C30.68,34.55,31.96,36.08,31.96,37.97z"/>
			<path d="M31.23,37.97c0,1.41-0.95,2.55-2.12,2.55c-1.17,0-2.12-1.14-2.12-2.55c0-1.41,0.95-2.55,2.12-2.55
				C30.28,35.42,31.23,36.56,31.23,37.97z"/>
		</g>
		<path class="st2" d="M27.53,33.84c0.45-0.18,0.95-0.29,1.45-0.29c1.83,0,3.36,1.53,3.7,3.56c-0.42-1.53-1.91-2.66-3.7-2.66
			c-1.79,0-3.29,1.14-3.7,2.67c0.11-0.67,0.36-1.28,0.7-1.8l-0.01,0c0,0-0.01,0-0.01,0c-0.61,0.08-1.37-0.17-2.18-1.19
			C25.44,34.67,26.77,34.15,27.53,33.84z"/>
	</g>
	<path class="st14" d="M30.75,36.71c0,0.38-0.3,0.68-0.68,0.68c-0.38,0-0.68-0.3-0.68-0.68c0-0.38,0.3-0.68,0.68-0.68
		C30.45,36.03,30.75,36.33,30.75,36.71z"/>
	
		<linearGradient id="SVGID_1_" gradientUnits="userSpaceOnUse" x1="4297.2544" y1="9.3929" x2="4317.2021" y2="9.3929" gradientTransform="matrix(1 0 0 1 -4260.3926 0)">
		<stop  offset="0" style="stop-color:#5F391B"/>
		<stop  offset="0.0589" style="stop-color:#6A4123"/>
		<stop  offset="0.2674" style="stop-color:#916342"/>
		<stop  offset="0.4265" style="stop-color:#AD7D5C"/>
		<stop  offset="0.5163" style="stop-color:#B88767"/>
		<stop  offset="0.5948" style="stop-color:#AF7F5F"/>
		<stop  offset="0.7204" style="stop-color:#9A6B49"/>
		<stop  offset="0.8765" style="stop-color:#7A4E2D"/>
		<stop  offset="1" style="stop-color:#5F391B"/>
	</linearGradient>
	<path class="st15" d="M38.35,3.97c3.48-0.7,9.26,1.62,12.98,4.35c2.96,2.18,4.01,4.05,5.49,6.62c-2.74-2.4-5.97-4.25-8.53-5.31
		c-2.83-1.18-9.17-2.46-10.1-2.79C36.69,6.32,36.11,4.42,38.35,3.97z"/>
	
		<linearGradient id="SVGID_2_" gradientUnits="userSpaceOnUse" x1="-282.2352" y1="11.4999" x2="-268.6599" y2="11.4999" gradientTransform="matrix(-1 0 0 1 -250.8926 0)">
		<stop  offset="0" style="stop-color:#5F391B"/>
		<stop  offset="0.0589" style="stop-color:#6A4123"/>
		<stop  offset="0.2674" style="stop-color:#916342"/>
		<stop  offset="0.4265" style="stop-color:#AD7D5C"/>
		<stop  offset="0.5163" style="stop-color:#B88767"/>
		<stop  offset="0.5948" style="stop-color:#AF7F5F"/>
		<stop  offset="0.7204" style="stop-color:#9A6B49"/>
		<stop  offset="0.8765" style="stop-color:#7A4E2D"/>
		<stop  offset="1" style="stop-color:#5F391B"/>
	</linearGradient>
	<path class="st16" d="M30.31,5.92c-2.44-0.7-6.24,1.68-8.85,4.41c-2.08,2.18-2.67,4.31-3.7,6.88c2-2.66,4.06-4.36,5.79-5.53
		c2-1.35,5.97-2.35,6.88-2.89C31.44,8.2,31.88,6.36,30.31,5.92z"/>
	<path class="st1" d="M36.74,105.07c0,0.92,0.75,1.67,1.67,1.67c0.92,0,1.67-0.75,1.67-1.67c0-0.92-0.75-1.67-1.67-1.67
		C37.49,103.39,36.74,104.14,36.74,105.07z"/>
</g>
<g id="Ebene_3" class="st0">
	<g class="st1">
		<g>
			<path class="st17" d="M38.62,54.54c-0.34,0-0.68-0.01-1.01-0.03c1.66,1.93,4.17,2.88,6.02,3.7c1.88,0.84,5.97,1.53,8.35,1.15
				c-1.07-1-1.68-3.22-1.3-4.75c0.34-1.34,2.45-3.37,2.99-5.82c0.38-1.76,0.33-2.57-0.06-3.65C51,49.39,46.08,54.54,38.62,54.54z"/>
		</g>
		<path class="st18" d="M43.02,55.04c-0.11-1.09-0.18-4.88-0.18-5.61h-8.31c0,0.73-0.07,4.52-0.18,5.61
			c-0.07,0.67-0.22,1.09-0.49,1.44c0.83,3.2,2.72,7.58,4.84,11.88c2.11-4.28,4-8.65,4.83-11.84C43.26,56.17,43.09,55.74,43.02,55.04
			z"/>
		<path class="st19" d="M51.13,91.64c0.42,0.04,0.8,0.08,1.18,0.08C51.97,91.69,51.58,91.66,51.13,91.64z M41.77,89.49l-1.28-2.56
			l-0.37,1.73c-1.28,0.46-10.87,2.36-14.01,2.97c-0.02,0.24-0.04,0.52-0.08,0.82c2.79-0.26,11.96-1.55,14.83-1.96
			c1.54,0.34,7.78,1.96,10.38,2.17c-0.05-0.38-0.09-0.73-0.11-1.03C46.24,91.41,41.77,89.49,41.77,89.49z"/>
		<path class="st20" d="M38.71,108.62c0,2.47-3.42,3.97-5.48,4.52c-2.05,0.55-6.04,0.18-8.22-0.14c-2.31-0.34-3.15-2.19-2.74-3.83
			s3.56-13.56,3.83-17.53c-1.37,0.14,0.69-2.01-0.41-3.38C24.59,86.89,6.61,39,8.53,38.7c3.25-0.5,5.19-0.79,5.19-0.79
			c1.34,2.68,9.74,20.22,11.86,19.97c1.61-0.19,3.05,1.14,5.64-0.89c0.17-0.14,0.43,0.04,0.59,0.2c0.23,3.65,3.1,16.74,4.88,22.17
			c0.59,0.05,3.29,0,3.29,0l0.18,1.19c1.78-5.43,5.06-19.71,5.29-23.36c0.19-0.19,0.44-0.27,0.66-0.11c2.61,1.99,7.03,3.78,8.8,4.66
			c1.92,0.96,2.42,2.28,2.65,4.06c0.23,1.81,0.91,8.35,0.32,14.61c-0.49,5.11-2.1,8.76-3.2,10.13c-1.1,1.37-2.19,1.23-3.56,1.1
			c0.27,3.97,3.42,15.88,3.83,17.53c0.41,1.64-0.48,3.56-2.74,3.83c-2.18,0.27-6.16,0.69-8.22,0.14
			C41.95,112.59,38.71,111.08,38.71,108.62z"/>
		<path class="st21" d="M36.71,79.36c0.59,0.05,3.29,0,3.29,0l0.18,1.19c1.78-5.43,5.06-19.71,5.29-23.36
			c0.02-0.02,0.05-0.04,0.08-0.06c-0.62-0.66-1.01-0.97-1.76-1.57c-0.67,3.24-2.74,8.08-5.07,12.8c-2.33-4.72-4.4-9.57-5.07-12.8
			c-0.77,0.62-1.17,0.93-1.82,1.64C32.05,60.85,34.93,73.93,36.71,79.36z"/>
		<path class="st19" d="M49.51,80.43c0.56-2.74,2.35-10.75,2.71-12.07c0.2-0.75,0.64-0.96,0.43,0.11
			c-0.26,1.36-1.79,10.17-2.19,12.46c-0.15,0.83-0.4,1.24-1.46,1.07c-0.75-0.12-6.23-1.25-6.85-1.43c1.47,0.04,6.02,0.4,6.27,0.4
			C48.88,80.98,49.42,80.89,49.51,80.43z"/>
		<path class="st18" d="M8.55,38.7c1.48-0.23,3.74-0.57,5.19-0.79c-0.58-2.26-1.34-5.06-2.08-6.83c-0.53-1.28-1.8-4.25-3.18-3.9
			c-1.75,0.44-2.99,2.33-2.86,4.55c0.11,1.88,1.36,3.55,1.85,4.4C7.97,36.99,8.39,37.51,8.55,38.7z"/>
		<g>
			<path class="st22" d="M51.37,82.09c-0.89-0.69-1.89-0.99-2.67-1c-0.32,0-0.62,0.03-0.88,0.09c-0.21,0.05-0.34,0.28-0.29,0.5
				c0.04,0.23,0.25,0.37,0.46,0.32l0,0c0.19-0.05,0.43-0.07,0.71-0.07c0.7-0.01,1.59,0.17,2.33,0.5l0,0
				C51.16,82.31,51.27,82.2,51.37,82.09z"/>
			<path class="st22" d="M46.95,79.03c-0.2,0.08-0.3,0.32-0.23,0.54s0.29,0.33,0.49,0.25l0,0c0.44-0.18,1.04-0.29,1.69-0.29
				c0.74,0,1.55,0.16,2.32,0.47l0,0c-0.18-0.29-0.41-0.55-0.67-0.79c-0.5-0.24-1.25-0.49-1.65-0.52
				C48.17,78.63,47.5,78.81,46.95,79.03z"/>
		</g>
		<path class="st23" d="M32.88,62.22c-0.35-1.41-0.47-3.93-0.44-5.65c-0.03,0.03-0.07,0.06-0.1,0.09c-0.07,1.42-0.05,3.69,0.19,5.31
			c0.05,0.28,0.11,0.57,0.16,0.86c1.19-0.23,3.54,0.86,4.61,2.75C36.1,63.33,34.07,61.99,32.88,62.22z"/>
		<path class="st23" d="M44.38,62.22c0.39-1.41,0.71-3.93,0.72-5.65c0.03,0.03,0.07,0.06,0.1,0.09c0.04,1.42-0.18,3.69-0.46,5.31
			c-0.06,0.28-0.12,0.57-0.18,0.86c-1.19-0.23-3.42,0.86-4.54,2.75C41.27,63.33,43.19,61.99,44.38,62.22z"/>
		<g>
			<path class="st22" d="M25.5,73.66c0.68,0,1.35,0.13,1.85,0.42c0.21,0.12,0.48,0.05,0.6-0.16c0.12-0.21,0.05-0.48-0.16-0.61
				c-0.7-0.41-1.51-0.55-2.3-0.55c-0.59,0-1.5,0.17-2.02,0.61c-0.12,0.22-0.23,0.46-0.31,0.73l0,0
				C23.72,73.88,24.62,73.66,25.5,73.66z"/>
			<path class="st22" d="M25.35,76.26c0.51,0,0.99,0.08,1.39,0.27c0.22,0.1,0.48,0.01,0.59-0.21c0.1-0.22,0.01-0.49-0.21-0.59
				c-0.55-0.26-1.16-0.35-1.77-0.35c-0.8,0-1.76,0.26-2.37,0.78c0.01,0.2,0.04,0.39,0.07,0.57l0,0
				C23.68,76.48,24.54,76.26,25.35,76.26z"/>
			<path class="st22" d="M25.86,79.03c0.4,0,0.78,0.06,1.11,0.19c0.23,0.09,0.48-0.02,0.57-0.25s-0.02-0.48-0.25-0.57
				c-0.46-0.18-0.95-0.25-1.44-0.25c-0.67,0-1.5,0.2-2.01,0.63c0.14,0.19,0.28,0.35,0.44,0.51l0,0
				C24.79,79.13,25.34,79.03,25.86,79.03z"/>
		</g>
		<path class="st24" d="M38.62,54.54c9.58,0,14.97-8.48,16.64-12.67c0.99,1.17,2.32,1.24,3.7-0.47c1.48-1.83,3.25-6.07,3.42-8.81
			c0.16-2.53-1.53-3.66-3.01-3.25c0.31-3.73,0.46-8.25-1.59-14.68C55.43,7.28,46.75,2.13,38.62,2.13S21.81,7.28,19.46,14.65
			c-2.04,6.43-1.89,10.95-1.59,14.68c-1.48-0.41-3.16,0.72-3.01,3.25c0.17,2.74,1.94,6.98,3.42,8.81c1.38,1.71,2.71,1.64,3.7,0.47
			C23.65,46.05,29.03,54.54,38.62,54.54z"/>
		<path class="st25" d="M45.04,44.05L45.04,44.05c0.18-0.18,0.18-0.47,0-0.65l0,0c-0.18-0.18-0.47-0.18-0.65,0l0,0
			c-1.01,1.03-3.4,2.02-5.77,2.01l0,0c-2.37,0.01-4.75-0.98-5.77-2.01l0,0c-0.18-0.18-0.47-0.18-0.65,0l0,0
			c-0.18,0.18-0.18,0.47,0,0.65l0,0c1.29,1.27,3.8,2.27,6.42,2.28l0,0C41.24,46.32,43.75,45.32,45.04,44.05L45.04,44.05z"/>
		<path class="st17" d="M27.07,25.85c1.15-1.01,2.63-1.4,3.96-1.4l0,0c1.13-0.01,2.14,0.31,2.63,0.67l0,0
			c0.25,0.18,0.59,0.12,0.77-0.12l0,0c0.18-0.25,0.12-0.59-0.12-0.77l0,0c-0.78-0.56-1.96-0.87-3.28-0.88l0,0
			c-1.53,0-3.28,0.45-4.68,1.67l0,0c-0.23,0.2-0.26,0.55-0.05,0.78l0,0c0.11,0.13,0.26,0.19,0.42,0.19l0,0
			C26.83,25.98,26.96,25.94,27.07,25.85L27.07,25.85z"/>
		<path class="st17" d="M50.95,25.79c0.2-0.23,0.18-0.58-0.05-0.78l0,0c-1.4-1.22-3.14-1.67-4.68-1.67l0,0
			c-1.32,0.01-2.5,0.32-3.28,0.88l0,0c-0.25,0.18-0.3,0.52-0.12,0.77l0,0c0.18,0.25,0.52,0.3,0.77,0.12l0,0
			c0.49-0.36,1.5-0.67,2.63-0.67l0,0c1.33,0,2.8,0.39,3.95,1.4l0,0c0.11,0.09,0.24,0.14,0.36,0.14l0,0
			C50.69,25.98,50.84,25.92,50.95,25.79L50.95,25.79z"/>
		<path class="st17" d="M38.62-0.01c14.69,0,20.49,10.77,21.92,17.66c0.99,4.75,0.15,10.75-0.05,11.67
			c-0.4-0.13-0.68-0.11-1.12,0.02c-1.5,1.02-2.32,2.02-3.32,3.52c0.26-0.84,0.13-2.39-0.31-3.75c-0.34-1.05-0.68-2.68-0.9-4.41
			c-5.39-1.25-10.41-5.16-14.81-8.4c1.38,1.79,4.21,4.34,6.41,5.77c-7.25-3.06-10.62-6.59-12.53-9.42
			c-1.64,3.08-6.89,7.27-11.26,9.04c-0.08,2.68-0.61,5.77-1.15,7.43c-0.44,1.36-0.56,2.91-0.31,3.75c-1-1.51-1.82-2.5-3.32-3.52
			c-0.44-0.13-0.73-0.15-1.12-0.02c-0.2-0.92-1.04-6.92-0.05-11.67C18.13,10.75,23.93-0.01,38.62-0.01z"/>
		<path class="st22" d="M38.62,40.81c0.51,0,1.31-0.01,1.69-0.07c0.47-0.08,0.9-0.41,0.33-1.14c-0.57-0.74-1.62-1.15-2.02-1.15
			s-1.45,0.41-2.02,1.15s-0.14,1.06,0.33,1.14C37.31,40.8,38.11,40.81,38.62,40.81z"/>
		<path class="st22" d="M16.46,32.31c0.23-0.98,1.18-1.29,2.2-0.11s1.69,2.55,1.79,2.91c0.1,0.36-0.21,0.9,0.05,1.48
			c0.25,0.57,0.7,0.57,0.9,1.31c0.15,0.54,0.21,1.49,0.07,1.8c-0.05,0.1-0.21,0.06-0.27-0.21c-0.13-0.64-0.2-1.71-0.74-2.08
			c-0.57-0.39-0.84-1.46-0.92-2.03c-0.08-0.51-0.37-0.92-0.84-1.48c-0.41-0.49-1.19-0.67-1.56-0.38
			C16.53,33.99,16.28,33.07,16.46,32.31z"/>
		<path class="st22" d="M60.77,32.31c-0.23-0.98-1.18-1.29-2.2-0.11s-1.69,2.55-1.79,2.91c-0.1,0.36,0.2,0.9-0.05,1.48
			c-0.25,0.57-0.7,0.57-0.9,1.31c-0.15,0.54-0.21,1.49-0.07,1.8c0.05,0.1,0.21,0.06,0.27-0.21c0.13-0.64,0.2-1.71,0.74-2.08
			c0.57-0.39,0.84-1.46,0.92-2.03c0.08-0.51,0.37-0.92,0.84-1.48c0.41-0.49,1.19-0.67,1.56-0.38C60.7,33.99,60.95,33.07,60.77,32.31
			z"/>
		<g>
			<path class="st12" d="M43.51,32.92c0,2.14,1.48,3.88,3.32,3.88c1.83,0,3.31-1.74,3.31-3.88s-1.48-3.88-3.31-3.88
				C44.99,29.04,43.51,30.77,43.51,32.92z"/>
			<g>
				<path class="st26" d="M44.21,32.93c0,1.66,1.12,3.01,2.5,3.01s2.5-1.35,2.5-3.01s-1.12-3.01-2.5-3.01
					C45.33,29.92,44.21,31.26,44.21,32.93z"/>
				<path class="st19" d="M44.85,32.93c0,1.24,0.83,2.24,1.86,2.24s1.86-1,1.86-2.24c0-1.24-0.83-2.24-1.86-2.24
					C45.68,30.68,44.85,31.69,44.85,32.93z"/>
			</g>
			<path class="st12" d="M48.28,31.82c0,0.33-0.27,0.6-0.6,0.6c-0.33,0-0.6-0.27-0.6-0.6s0.27-0.6,0.6-0.6S48.28,31.49,48.28,31.82z
				"/>
			<path class="st17" d="M48.1,29.29c-0.39-0.16-0.84-0.26-1.28-0.26c-1.61,0-2.95,1.35-3.25,3.13c0.36-1.34,1.68-2.34,3.25-2.34
				s2.89,1,3.25,2.34c-0.1-0.59-0.32-1.12-0.62-1.58h0.01h0.01c0.53,0.07,1.21-0.15,1.92-1.04C49.94,30.02,48.77,29.57,48.1,29.29z"
				/>
		</g>
		<g>
			<path class="st12" d="M33.84,32.92c0,2.14-1.48,3.88-3.32,3.88c-1.83,0-3.32-1.74-3.32-3.88s1.48-3.88,3.32-3.88
				C32.36,29.04,33.84,30.77,33.84,32.92z"/>
			<g>
				<path class="st26" d="M33.14,32.93c0,1.66-1.12,3.01-2.5,3.01c-1.38,0-2.5-1.35-2.5-3.01s1.12-3.01,2.5-3.01
					C32.02,29.92,33.14,31.26,33.14,32.93z"/>
				<path class="st19" d="M32.5,32.93c0,1.24-0.84,2.24-1.86,2.24c-1.03,0-1.86-1-1.86-2.24c0-1.24,0.83-2.24,1.86-2.24
					C31.66,30.68,32.5,31.69,32.5,32.93z"/>
			</g>
			<path class="st17" d="M29.25,29.29c0.39-0.16,0.84-0.26,1.28-0.26c1.61,0,2.95,1.35,3.25,3.13c-0.36-1.34-1.68-2.34-3.25-2.34
				s-2.89,1-3.25,2.34c0.1-0.59,0.32-1.12,0.62-1.58h-0.01h-0.01c-0.53,0.07-1.21-0.15-1.92-1.04
				C27.4,30.02,28.58,29.57,29.25,29.29z"/>
		</g>
		<path class="st12" d="M32.08,31.82c0,0.33-0.27,0.6-0.6,0.6s-0.6-0.27-0.6-0.6s0.27-0.6,0.6-0.6S32.08,31.49,32.08,31.82z"/>
		
			<linearGradient id="SVGID_3_" gradientUnits="userSpaceOnUse" x1="4297.8457" y1="106.8163" x2="4315.3843" y2="106.8163" gradientTransform="matrix(1 0 0 -1 -4260.3926 114.6142)">
			<stop  offset="0" style="stop-color:#5F3A1B"/>
			<stop  offset="0.0589" style="stop-color:#6A4224"/>
			<stop  offset="0.2674" style="stop-color:#926443"/>
			<stop  offset="0.4265" style="stop-color:#AE7E5D"/>
			<stop  offset="0.5163" style="stop-color:#B88767"/>
			<stop  offset="0.5948" style="stop-color:#AF7F5F"/>
			<stop  offset="0.7204" style="stop-color:#9B6C4A"/>
			<stop  offset="0.8765" style="stop-color:#7B4F2E"/>
			<stop  offset="1" style="stop-color:#5F3A1B"/>
		</linearGradient>
		<path class="st27" d="M38.76,3.03c3.06-0.61,8.14,1.42,11.41,3.83c2.6,1.91,3.53,3.56,4.82,5.82c-2.41-2.11-5.25-3.74-7.5-4.67
			C45,6.98,39.43,5.85,38.61,5.56C37.3,5.1,36.79,3.42,38.76,3.03z"/>
		
			<linearGradient id="SVGID_4_" gradientUnits="userSpaceOnUse" x1="-283.49" y1="104.9653" x2="-271.5543" y2="104.9653" gradientTransform="matrix(-1 0 0 -1 -250.8926 114.6142)">
			<stop  offset="0" style="stop-color:#5F3A1B"/>
			<stop  offset="0.0589" style="stop-color:#6A4224"/>
			<stop  offset="0.2674" style="stop-color:#926443"/>
			<stop  offset="0.4265" style="stop-color:#AE7E5D"/>
			<stop  offset="0.5163" style="stop-color:#B88767"/>
			<stop  offset="0.5948" style="stop-color:#AF7F5F"/>
			<stop  offset="0.7204" style="stop-color:#9B6C4A"/>
			<stop  offset="0.8765" style="stop-color:#7B4F2E"/>
			<stop  offset="1" style="stop-color:#5F3A1B"/>
		</linearGradient>
		<path class="st28" d="M31.69,4.74c-2.15-0.61-5.48,1.47-7.78,3.88c-1.83,1.91-2.35,3.79-3.25,6.05c1.76-2.34,3.57-3.84,5.09-4.86
			C27.51,8.62,31,7.74,31.8,7.27C32.68,6.75,33.07,5.14,31.69,4.74z"/>
	</g>
</g>
<g id="Ebene_1">
	<g>
		<path class="st29" d="M26.21,115.08c1.98,0.24,5.59,0.62,7.46,0.13c1.86-0.5,4.81-1.86,4.81-4.1c0,2.24,3.11,3.61,4.97,4.1
			c1.86,0.5,5.49,0.17,7.46-0.13c0.11-0.02,0.2-0.05,0.3-0.07c-0.5,6.67-2.08,13.15-2.71,21.74H29.26
			c-0.94-6.57-2.85-15.31-3.29-21.72C26.05,115.04,26.12,115.07,26.21,115.08z"/>
		<path class="st30" d="M34.56,62.46c0.1-0.99,0.17-4.43,0.17-5.1h7.54c0,0.66,0.07,4.11,0.16,5.1c0.06,0.61,0.2,0.99,0.44,1.31
			c-0.75,2.9-2.47,6.88-4.4,10.79c-1.92-3.89-3.63-7.85-4.39-10.75C34.35,63.48,34.5,63.09,34.56,62.46z"/>
		<path class="st30" d="M36.31,136.75h8.33"/>
		<path class="st31" d="M36.31,136.75h4.64"/>
		<g>
			<path class="st30" d="M31.08,136.75h8.65"/>
		</g>
		<path class="st32" d="M38.74,88.75c-1.62-4.93-6.18-21.03-6.39-24.34c-0.02-0.02-0.05-0.04-0.07-0.06
			c0.56-0.59,0.92-0.88,1.6-1.42c0.61,2.94,2.49,7.33,4.6,11.62c2.11-4.29,3.99-8.69,4.6-11.62c0.7,0.57,1.06,0.85,1.65,1.49
			C44.52,67.73,40.35,83.82,38.74,88.75z"/>
		<path class="st33" d="M43.6,68.98c0.32-1.28,0.6-3.56,0.56-5.13c0.03,0.03,0.06,0.05,0.09,0.08c0.06,1.29-0.06,3.19-0.34,4.82
			c-0.05,0.25-0.1,0.51-0.15,0.78c-1.08-0.21-3.05,0.78-4.02,2.5C40.84,69.98,42.52,68.77,43.6,68.98z"/>
		<path class="st33" d="M33.57,69.05c-0.35-1.28-0.89-3.56-0.89-5.13c-0.03,0.03-0.06,0.05-0.09,0.08
			c-0.03,1.29,0.35,3.37,0.66,4.82c0.05,0.25,0.11,0.51,0.17,0.78c1.08-0.21,2.86,0.78,3.88,2.5
			C36.15,70.06,34.65,68.85,33.57,69.05z"/>
		<path class="st30" d="M38.5,62c-8.7,0-13.59-7.7-15.1-11.5c-0.9,1.06-2.11,1.13-3.36-0.43c-1.34-1.66-2.95-5.51-3.1-8
			c-0.14-2.3,1.39-3.32,2.73-2.95c-0.28-3.38-0.41-7.49,1.44-13.33c2.13-6.69,10.01-11.37,17.39-11.37
			c7.39,0,15.26,4.68,17.39,11.37c1.86,5.84,1.72,9.94,1.44,13.33c1.11-0.47,2.87,0.65,2.73,2.95c-0.15,2.49-1.76,6.34-3.1,8
			c-1.25,1.55-2.46,1.49-3.36,0.43C52.08,54.3,47.2,62,38.5,62z"/>
		<path class="st34" d="M42.95,52.18c-0.84,1.48-2.63,2.75-4.44,2.75s-3.61-1.28-4.44-2.75H42.95z"/>
		<path class="st31" d="M38.5,49.54c-0.46,0-1.19-0.01-1.53-0.07c-0.43-0.07-0.82-0.37-0.3-1.04c0.52-0.67,1.47-1.04,1.84-1.04
			c0.36,0,1.32,0.37,1.84,1.04c0.52,0.67,0.13,0.97-0.3,1.04C39.68,49.53,38.96,49.54,38.5,49.54z"/>
		<path class="st31" d="M58.61,41.83c-0.21-0.89-1.07-1.17-1.99-0.1c-0.93,1.07-1.53,2.32-1.62,2.64c-0.09,0.32,0.19,0.82-0.05,1.34
			c-0.23,0.52-0.64,0.51-0.82,1.19c-0.13,0.49-0.19,1.35-0.06,1.63c0.04,0.09,0.19,0.06,0.24-0.19c0.12-0.58,0.18-1.55,0.67-1.88
			c0.52-0.35,0.76-1.32,0.84-1.84c0.07-0.46,0.34-0.83,0.77-1.34c0.37-0.44,1.08-0.61,1.41-0.35
			C58.55,43.35,58.77,42.51,58.61,41.83z"/>
		<path class="st31" d="M18.38,41.83c0.21-0.89,1.07-1.17,1.99-0.1c0.93,1.07,1.53,2.32,1.62,2.64c0.09,0.32-0.19,0.82,0.05,1.34
			c0.23,0.52,0.64,0.51,0.82,1.19c0.13,0.49,0.19,1.35,0.06,1.63c-0.04,0.09-0.19,0.06-0.24-0.19c-0.12-0.58-0.18-1.55-0.67-1.88
			c-0.52-0.35-0.76-1.32-0.84-1.84c-0.07-0.46-0.34-0.83-0.77-1.34c-0.37-0.44-1.08-0.61-1.41-0.35
			C18.45,43.35,18.22,42.51,18.38,41.83z"/>
		<g>
			<path class="st12" d="M34.06,42.38c0,1.95-1.35,3.52-3.01,3.52c-1.66,0-3.01-1.58-3.01-3.52c0-1.95,1.35-3.52,3.01-3.52
				C32.71,38.85,34.06,40.43,34.06,42.38z"/>
			<g>
				<path class="st13" d="M33.42,42.39c0,1.51-1.02,2.73-2.27,2.73c-1.25,0-2.27-1.22-2.27-2.73c0-1.51,1.02-2.73,2.27-2.73
					C32.4,39.65,33.42,40.88,33.42,42.39z"/>
				<path d="M32.84,42.39c0,1.12-0.76,2.04-1.69,2.04c-0.93,0-1.69-0.91-1.69-2.04c0-1.12,0.76-2.04,1.69-2.04
					C32.08,40.35,32.84,41.26,32.84,42.39z"/>
			</g>
			<path class="st12" d="M31.22,41.38c0,0.3,0.24,0.54,0.54,0.54c0.3,0,0.54-0.24,0.54-0.54c0-0.3-0.24-0.54-0.54-0.54
				C31.47,40.84,31.22,41.08,31.22,41.38z"/>
			<path class="st35" d="M29.89,39.09c0.36-0.15,0.76-0.23,1.16-0.23c1.46,0,2.68,1.22,2.95,2.84c-0.33-1.22-1.53-2.12-2.95-2.12
				c-1.43,0-2.62,0.91-2.95,2.13c0.09-0.54,0.29-1.02,0.56-1.44l-0.01,0c0,0,0,0-0.01,0c-0.48,0.06-1.1-0.14-1.74-0.95
				C28.22,39.75,29.28,39.33,29.89,39.09z"/>
		</g>
		<g>
			<path class="st12" d="M42.83,42.38c0,1.95,1.35,3.52,3.01,3.52c1.66,0,3.01-1.58,3.01-3.52c0-1.95-1.35-3.52-3.01-3.52
				C44.18,38.85,42.83,40.43,42.83,42.38z"/>
			<g>
				<path class="st13" d="M43.47,42.39c0,1.51,1.02,2.73,2.27,2.73c1.25,0,2.27-1.22,2.27-2.73c0-1.51-1.02-2.73-2.27-2.73
					C44.49,39.65,43.47,40.88,43.47,42.39z"/>
				<path d="M44.05,42.39c0,1.12,0.76,2.04,1.69,2.04c0.93,0,1.69-0.91,1.69-2.04c0-1.12-0.76-2.04-1.69-2.04
					C44.81,40.35,44.05,41.26,44.05,42.39z"/>
			</g>
			<path class="st35" d="M47,39.09c-0.36-0.15-0.76-0.23-1.16-0.23c-1.46,0-2.68,1.22-2.95,2.84c0.33-1.22,1.53-2.12,2.95-2.12
				c1.43,0,2.62,0.91,2.95,2.13c-0.09-0.54-0.29-1.02-0.56-1.44l0.01,0c0,0,0,0,0.01,0c0.48,0.06,1.1-0.14,1.74-0.95
				C48.68,39.75,47.61,39.33,47,39.09z"/>
		</g>
		<path class="st12" d="M45.93,41.38c0,0.3,0.24,0.54,0.54,0.54c0.3,0,0.54-0.24,0.54-0.54c0-0.3-0.24-0.54-0.54-0.54
			C46.17,40.84,45.93,41.08,45.93,41.38z"/>
		<path class="st30" d="M56.69,109.05c0.08,1.19,0.05,4.22-0.17,5.54c-0.22,1.32-0.38,4.22,0.11,5.25
			c-0.36,0.64-0.32,1.04,0.13,1.59c0.32,0.4,0.87,0.83,1.68,0.97c0.7,0.12,2.1,0.17,2.49-0.51c0.57-0.99,1.1-2.6,1.27-3.34
			c0.14-0.59,0.32-1.8,0.03-2.99c-0.3-1.19-0.84-3.3-1.02-4.05c-0.19-0.76-0.27-1.51-0.33-2.48L56.69,109.05z"/>
		<path class="st31" d="M58.58,116.29c-0.17,0.43-0.35,1.53-0.46,2.09c-0.09,0.4-0.31,1.11-0.62,1.51c0.24,0.4,1.05,0.67,1.47,0.36
			c0.42-0.31,0.67-1.45,0.68-1.99c0.02-0.63-0.08-1.16-0.24-1.64C59.25,116.14,58.92,115.41,58.58,116.29z"/>
		<path class="st36" d="M35.58,53.87c1.41-0.76,4.31-1.47,6.7-0.78c0.26-0.29,0.49-0.59,0.67-0.91h-8.89
			C34.42,52.81,34.95,53.4,35.58,53.87z"/>
		<path class="st29" d="M46.26,77.33c0.41-1.07,0.61-1.93,0.61-2.7c0-0.53-0.1-1.01-0.28-1.45c0.75-0.41,1.22-0.94,1.28-2
			c0.01-0.16,0.02-0.35,0.02-0.56c0-1.3-0.45-3.52-1.15-5.37c-0.09-0.06-0.17-0.11-0.26-0.17c0.43,1.93,0.67,4.28,0.67,5.53
			c0,0.2-0.01,0.37-0.02,0.5c-0.13,1.03-0.27,1.05-1.2,1.56l-0.34,0.17l0.18,0.33c0.24,0.45,0.36,0.9,0.36,1.45
			c0,0.63-0.17,1.41-0.56,2.43c-1.5,3.91-4.29,10.18-6.11,12.87c-0.08,0.13,0.04,0.26,0.14,0.14
			C41.78,87.28,44.74,81.28,46.26,77.33z"/>
		<path class="st29" d="M30.83,77.33c-0.41-1.07-0.61-1.93-0.61-2.7c0-0.53,0.1-1.01,0.28-1.45c-0.75-0.41-1.22-0.94-1.28-2
			c-0.01-0.16-0.02-0.35-0.02-0.56c0-1.3,0.45-3.52,1.15-5.37c0.09-0.05,0.17-0.11,0.26-0.17c-0.43,1.93-0.67,4.28-0.67,5.53
			c0,0.2,0.01,0.37,0.02,0.51c0.13,1.03,0.27,1.05,1.2,1.56l0.34,0.17l-0.18,0.33c-0.24,0.45-0.36,0.9-0.36,1.45
			c0,0.63,0.17,1.41,0.57,2.44c1.5,3.91,4.29,10.18,6.11,12.87c0.08,0.13-0.04,0.26-0.14,0.14C35.31,87.28,32.36,81.29,30.83,77.33z
			"/>
		<path class="st29" d="M40.3,95.94c0,0.74-0.6,1.33-1.34,1.33c-0.74,0-1.34-0.6-1.34-1.33c0-0.74,0.6-1.34,1.34-1.34
			C39.7,94.6,40.3,95.2,40.3,95.94z"/>
		<path class="st35" d="M25.98,16.41c-1.18-3.9,0.52-8.15,3.93-9.12c-0.73-2.69,1.28-5.69,4.03-5.4c1.62-3.25,8.09-2.78,9.4,0.19
			c3.15,0.45,4.96,3.9,4.33,6.18c2.63,1,4.25,4.56,3.02,7.91c4.66,3.42,6.92,8.53,7.71,12.34c0.89,4.31,0.14,9.76-0.05,10.6
			c-0.36-0.12-0.62-0.1-1.02,0.02c-1.36,0.92-2.11,1.83-3.01,3.2c0.23-0.76,0.13-2.4-0.14-3.68c-0.31-1.49-0.52-2.78-0.88-4.53
			c-0.84-4.08-4.43-6.18-7.72-5.66c-2.84,0.44-5.26,0.67-6.8,0.72c-1.7,0.05-3.55-0.26-6.95-0.93c-3.85-0.76-7.21,2.47-8.19,5.66
			c-0.47,1.52-0.82,3.14-0.93,4.43c-0.1,1.29-0.27,3.22-0.04,3.98c-0.9-1.37-1.65-2.27-3.01-3.2c-0.4-0.12-0.65-0.08-1.02-0.02
			c-0.19-0.83-0.94-6.28-0.05-10.6C19.37,24.79,21.54,19.83,25.98,16.41z"/>
		
			<linearGradient id="SVGID_5_" gradientUnits="userSpaceOnUse" x1="35.7261" y1="21.7726" x2="47.6753" y2="21.7726" gradientTransform="matrix(1 0 0 1 6.8926 0)">
			<stop  offset="0" style="stop-color:#1A1A1A"/>
			<stop  offset="0.1993" style="stop-color:#3D3D3D"/>
			<stop  offset="0.4016" style="stop-color:#5B5B5B"/>
			<stop  offset="0.5163" style="stop-color:#666666"/>
			<stop  offset="0.6148" style="stop-color:#5D5D5D"/>
			<stop  offset="0.7723" style="stop-color:#464646"/>
			<stop  offset="0.9683" style="stop-color:#202020"/>
			<stop  offset="1" style="stop-color:#1A1A1A"/>
		</linearGradient>
		<path class="st37" d="M43.52,16.86c2.15-0.61,5.49,1.48,7.79,3.88c1.83,1.92,2.35,3.8,3.26,6.06c-1.76-2.34-3.57-3.84-5.1-4.87
			c-1.76-1.19-5.25-2.07-6.05-2.54C42.53,18.87,42.14,17.25,43.52,16.86z"/>
		
			<linearGradient id="SVGID_6_" gradientUnits="userSpaceOnUse" x1="5066.7798" y1="21.7726" x2="5078.7295" y2="21.7726" gradientTransform="matrix(-1 0 0 1 5101.1074 0)">
			<stop  offset="0" style="stop-color:#1A1A1A"/>
			<stop  offset="0.1993" style="stop-color:#3D3D3D"/>
			<stop  offset="0.4016" style="stop-color:#5B5B5B"/>
			<stop  offset="0.5163" style="stop-color:#666666"/>
			<stop  offset="0.6148" style="stop-color:#5D5D5D"/>
			<stop  offset="0.7723" style="stop-color:#464646"/>
			<stop  offset="0.9683" style="stop-color:#202020"/>
			<stop  offset="1" style="stop-color:#1A1A1A"/>
		</linearGradient>
		<path class="st38" d="M33.42,16.86c-2.15-0.61-5.49,1.48-7.79,3.88c-1.83,1.92-2.35,3.8-3.26,6.06c1.76-2.34,3.57-3.84,5.1-4.87
			c1.76-1.19,5.25-2.07,6.05-2.54C34.41,18.87,34.8,17.25,33.42,16.86z"/>
		<linearGradient id="SVGID_7_" gradientUnits="userSpaceOnUse" x1="28.9463" y1="9.4624" x2="37.9583" y2="9.4624">
			<stop  offset="0" style="stop-color:#1A1A1A"/>
			<stop  offset="0.1993" style="stop-color:#3D3D3D"/>
			<stop  offset="0.4016" style="stop-color:#5B5B5B"/>
			<stop  offset="0.5163" style="stop-color:#666666"/>
			<stop  offset="0.6148" style="stop-color:#5D5D5D"/>
			<stop  offset="0.7723" style="stop-color:#464646"/>
			<stop  offset="0.9683" style="stop-color:#202020"/>
			<stop  offset="1" style="stop-color:#1A1A1A"/>
		</linearGradient>
		<path class="st39" d="M28.95,11.46c0.57-2.37,2.37-3.71,4.74-3.97c1.59-0.17,3.3,0.57,4.27,1.96c-1.49-0.62-3.55-0.36-4.69-0.15
			C32.14,9.5,30.34,10.07,28.95,11.46z"/>
		
			<linearGradient id="SVGID_8_" gradientUnits="userSpaceOnUse" x1="5061.313" y1="11.1618" x2="5070.3252" y2="11.1618" gradientTransform="matrix(-1 0 0 1 5108.334 0)">
			<stop  offset="0" style="stop-color:#1A1A1A"/>
			<stop  offset="0.1993" style="stop-color:#3D3D3D"/>
			<stop  offset="0.4016" style="stop-color:#5B5B5B"/>
			<stop  offset="0.5163" style="stop-color:#666666"/>
			<stop  offset="0.6148" style="stop-color:#5D5D5D"/>
			<stop  offset="0.7723" style="stop-color:#464646"/>
			<stop  offset="0.9683" style="stop-color:#202020"/>
			<stop  offset="1" style="stop-color:#1A1A1A"/>
		</linearGradient>
		<path class="st40" d="M47.02,13.16c-0.57-2.37-2.37-3.71-4.74-3.97c-1.59-0.17-3.3,0.57-4.27,1.96c1.49-0.62,3.55-0.36,4.69-0.15
			C43.83,11.2,45.63,11.77,47.02,13.16z"/>
		
			<linearGradient id="SVGID_9_" gradientUnits="userSpaceOnUse" x1="600.7537" y1="487.0545" x2="607.9159" y2="487.0545" gradientTransform="matrix(0.9771 0.2129 -0.2129 0.9771 -446.0235 -598.7156)">
			<stop  offset="0" style="stop-color:#1A1A1A"/>
			<stop  offset="0.1993" style="stop-color:#3D3D3D"/>
			<stop  offset="0.4016" style="stop-color:#5B5B5B"/>
			<stop  offset="0.5163" style="stop-color:#666666"/>
			<stop  offset="0.6148" style="stop-color:#5D5D5D"/>
			<stop  offset="0.7723" style="stop-color:#464646"/>
			<stop  offset="0.9683" style="stop-color:#202020"/>
			<stop  offset="1" style="stop-color:#1A1A1A"/>
		</linearGradient>
		<path class="st41" d="M36.94,6.64c0.84-1.74,2.47-2.48,4.35-2.28c1.26,0.13,2.46,1,2.99,2.24c-1.06-0.73-2.7-0.88-3.61-0.91
			C39.75,5.66,38.26,5.79,36.94,6.64z"/>
		
			<linearGradient id="SVGID_10_" gradientUnits="userSpaceOnUse" x1="595.3115" y1="486.693" x2="600.41" y2="486.693" gradientTransform="matrix(0.9771 0.2129 -0.2129 0.9771 -446.0235 -598.7156)">
			<stop  offset="0" style="stop-color:#1A1A1A"/>
			<stop  offset="0.1993" style="stop-color:#3D3D3D"/>
			<stop  offset="0.4016" style="stop-color:#5B5B5B"/>
			<stop  offset="0.5163" style="stop-color:#666666"/>
			<stop  offset="0.6148" style="stop-color:#5D5D5D"/>
			<stop  offset="0.7723" style="stop-color:#464646"/>
			<stop  offset="0.9683" style="stop-color:#202020"/>
			<stop  offset="1" style="stop-color:#1A1A1A"/>
		</linearGradient>
		<path class="st42" d="M31.8,4.68c0.6-1.24,1.76-1.76,3.1-1.62c0.9,0.1,1.75,0.71,2.13,1.6C36.27,4.13,35.1,4.02,34.45,4
			C33.8,3.98,32.73,4.08,31.8,4.68z"/>
		<path class="st35" d="M42.13,35.25c-0.12-0.23-0.03-0.51,0.19-0.63l0,0c1.54-0.8,3.01-1.52,4.61-1.53l0,0
			c0.26,0,0.52,0.02,0.78,0.06l0,0c1.21,0.2,2,1.03,2.34,1.37l0,0c0.18,0.18,0.18,0.47,0,0.66l0,0c-0.18,0.18-0.47,0.18-0.66,0l0,0
			c-0.33-0.34-0.99-0.98-1.83-1.11l0,0c-0.21-0.04-0.42-0.05-0.64-0.05l0,0c-1.3-0.01-2.65,0.62-4.17,1.42l0,0h0
			c-0.07,0.04-0.14,0.05-0.22,0.05l0,0C42.38,35.5,42.22,35.41,42.13,35.25L42.13,35.25z"/>
		<path class="st35" d="M34.97,35.25c0.12-0.23,0.03-0.51-0.19-0.63l0,0c-1.54-0.8-3.01-1.52-4.61-1.53l0,0
			c-0.26,0-0.52,0.02-0.78,0.06l0,0c-1.21,0.2-2,1.03-2.34,1.37l0,0c-0.18,0.18-0.18,0.47,0,0.66l0,0c0.18,0.18,0.47,0.18,0.66,0
			l0,0c0.33-0.34,0.99-0.98,1.83-1.11l0,0c0.21-0.04,0.42-0.05,0.64-0.05l0,0c1.3-0.01,2.65,0.62,4.17,1.42l0,0h0
			c0.07,0.04,0.14,0.05,0.22,0.05l0,0C34.72,35.5,34.88,35.41,34.97,35.25L34.97,35.25z"/>
	</g>
	<path class="st30" d="M15.78,107.25c-0.08,1.19-0.05,4.22,0.17,5.54c0.22,1.32,0.38,4.22-0.11,5.25c0.36,0.64,0.32,1.04-0.13,1.59
		c-0.32,0.4-0.87,0.83-1.68,0.97c-0.7,0.12-2.1,0.17-2.49-0.51c-0.57-0.99-1.1-2.6-1.27-3.34c-0.14-0.59-0.32-1.8-0.03-2.99
		c0.3-1.19,0.84-3.3,1.02-4.05c0.19-0.76,0.27-1.51,0.33-2.48L15.78,107.25z"/>
	<path class="st31" d="M14.19,114.37c0.17,0.43,0.35,1.53,0.46,2.09c0.09,0.4,0.31,1.11,0.62,1.51c-0.24,0.4-1.05,0.67-1.47,0.36
		c-0.42-0.31-0.67-1.45-0.68-1.99c-0.02-0.63,0.08-1.16,0.24-1.64C13.53,114.22,13.86,113.49,14.19,114.37z"/>
</g>
<g id="Ebene_4">
	<path class="st29" d="M25.72,78.26c0.48,2.59,0.41,8.14,0.77,10.29c0.27,1.57,0.93,4.43,0.72,6.98
		c-0.25,3.61-3.11,14.42-3.48,15.91c-0.37,1.49,0.44,3.23,2.49,3.48c1.98,0.24,5.59,0.62,7.46,0.13c1.86-0.5,4.81-1.86,4.81-4.1
		c0,2.24,3.11,3.61,4.97,4.1c1.86,0.5,5.49,0.17,7.46-0.13c2.1-0.31,2.86-1.99,2.49-3.48c-0.37-1.49-3.23-12.31-3.48-15.91
		c0-2.61,0.22-5.27,0.52-6.83c0.57-3.04,0.31-4.58,0.88-8.03c0.51,1.71,1.29,7,1.75,10.71c0.4,3.23,1.73,11.23,3.09,18.13h5.28
		c-0.21-4.87-1.94-18.4-2.81-24.46C57.76,79,55.84,69.64,53.36,68.4c-1.63-0.82-5.74-2.47-8.09-4.31c-0.16-0.12-0.39,0.04-0.53,0.18
		c-0.21,3.32-4.38,19.41-5.99,24.34c-1.62-4.93-6.18-21.03-6.39-24.34c-0.17-0.17-0.4-0.25-0.6-0.1c-2.37,1.81-6.42,3.35-7.99,4.23
		c-2.63,1.47-4.31,3.51-6.1,7.83c-0.24,0.59-2.91,10.16-3.49,14.37c-0.92,4.01-1.67,11.5-2.99,16.64l4.92,0.05
		c0.58-1.57,1.97-5.14,2.36-7.36c0.48-2.65,1.04-3.62,1.4-4.95c0.36-1.33,2.21-8.99,4.54-14.12C25.49,78.5,25.54,78.6,25.72,78.26z"
		/>
</g>
</svg>
