<?xml version="1.0" encoding="utf-8"?>
<!-- Generator: Adobe Illustrator 24.3.0, SVG Export Plug-In . SVG Version: 6.00 Build 0)  -->
<svg version="1.1" id="Ebene_1" xmlns="http://www.w3.org/2000/svg" xmlns:xlink="http://www.w3.org/1999/xlink" x="0px" y="0px"
	 viewBox="0 0 70.87 113.39" style="enable-background:new 0 0 70.87 113.39;" xml:space="preserve">
<style type="text/css">
	.st0{fill:#5F391B;}
	.st1{fill:#F9C2A9;}
	.st2{fill:#292746;}
	.st3{fill:#D3E1F0;}
	.st4{opacity:0.55;fill:#CE8C73;}
	.st5{fill:#BFCDDA;}
	.st6{fill:#F9C2A6;}
	.st7{opacity:0.8;fill:#CE8C73;}
	.st8{fill:#FFFFFF;}
	.st9{fill:#7D6857;}
	.st10{fill:url(#SVGID_1_);}
	.st11{fill:url(#SVGID_2_);}
</style>
<g>
	<g>
		<path class="st0" d="M37.83,54.53c-0.34,0-0.68-0.01-1.01-0.03c1.66,1.93,4.17,2.88,6.02,3.7c1.88,0.84,5.97,1.53,8.35,1.15
			c-1.07-1-1.68-3.22-1.3-4.75c0.34-1.34,2.45-3.37,2.99-5.82c0.38-1.76,0.33-2.57-0.06-3.65C50.21,49.38,45.29,54.53,37.83,54.53z"
			/>
	</g>
	<path class="st1" d="M42.23,55.03c-0.11-1.09-0.18-4.88-0.18-5.61h-8.31c0,0.73-0.07,4.52-0.18,5.61
		c-0.07,0.67-0.22,1.09-0.49,1.44c0.83,3.2,2.72,7.58,4.84,11.88c2.11-4.28,4-8.65,4.83-11.84C42.47,56.16,42.3,55.73,42.23,55.03z"
		/>
	<path d="M50.34,91.63c0.42,0.04,0.8,0.08,1.18,0.08C51.18,91.68,50.79,91.65,50.34,91.63z M40.98,89.48l-1.28-2.56l-0.37,1.73
		c-1.28,0.46-10.87,2.36-14.01,2.97c-0.02,0.24-0.04,0.52-0.08,0.82c2.79-0.26,11.96-1.55,14.83-1.96
		c1.54,0.34,7.78,1.96,10.38,2.17c-0.05-0.38-0.09-0.73-0.11-1.03C45.45,91.4,40.98,89.48,40.98,89.48z"/>
	<path class="st2" d="M37.92,108.61c0,2.47-3.42,3.97-5.48,4.52c-2.05,0.55-6.04,0.18-8.22-0.14c-2.31-0.34-3.15-2.19-2.74-3.83
		c0.41-1.64,3.56-13.56,3.83-17.53c-1.37,0.14,0.69-2.01-0.41-3.38c-1.1-1.37-19.08-49.26-17.16-49.56c3.25-0.5,5.19-0.79,5.19-0.79
		c1.34,2.68,9.74,20.22,11.86,19.97c1.61-0.19,3.05,1.14,5.64-0.89c0.17-0.14,0.43,0.04,0.59,0.2c0.23,3.65,3.1,16.74,4.88,22.17
		c0.59,0.05,3.29,0,3.29,0l0.18,1.19c1.78-5.43,5.06-19.71,5.29-23.36c0.19-0.19,0.44-0.27,0.66-0.11c2.61,1.99,7.03,3.78,8.8,4.66
		c1.92,0.96,2.42,2.28,2.65,4.06c0.23,1.81,0.91,8.35,0.32,14.61c-0.49,5.11-2.1,8.76-3.2,10.13c-1.1,1.37-2.19,1.23-3.56,1.1
		c0.27,3.97,3.42,15.88,3.83,17.53c0.41,1.64-0.48,3.56-2.74,3.83c-2.18,0.27-6.16,0.69-8.22,0.14
		C41.16,112.58,37.92,111.07,37.92,108.61z"/>
	<path class="st3" d="M35.92,79.35c0.59,0.05,3.29,0,3.29,0l0.18,1.19c1.78-5.43,5.06-19.71,5.29-23.36
		c0.02-0.02,0.05-0.04,0.08-0.06c-0.62-0.66-1.01-0.97-1.76-1.57c-0.67,3.24-2.74,8.08-5.07,12.8c-2.33-4.72-4.4-9.57-5.07-12.8
		c-0.77,0.62-1.17,0.93-1.82,1.64C31.26,60.84,34.14,73.92,35.92,79.35z"/>
	<path d="M48.72,80.42c0.56-2.74,2.35-10.75,2.71-12.07c0.2-0.75,0.64-0.96,0.43,0.11c-0.26,1.36-1.79,10.17-2.19,12.46
		c-0.15,0.83-0.4,1.24-1.46,1.07c-0.75-0.12-6.23-1.25-6.85-1.43c1.47,0.04,6.02,0.4,6.27,0.4C48.09,80.97,48.63,80.88,48.72,80.42z
		"/>
	<path class="st1" d="M7.76,38.69c1.48-0.23,3.74-0.57,5.19-0.79c-0.58-2.26-1.34-5.06-2.08-6.83c-0.53-1.28-1.8-4.25-3.18-3.9
		c-1.75,0.44-2.99,2.33-2.86,4.55c0.11,1.88,1.36,3.55,1.85,4.4C7.18,36.98,7.6,37.5,7.76,38.69z"/>
	<g>
		<path class="st4" d="M50.58,82.08c-0.89-0.69-1.89-0.99-2.67-1c-0.32,0-0.62,0.03-0.88,0.09c-0.21,0.05-0.34,0.28-0.29,0.5
			c0.04,0.23,0.25,0.37,0.46,0.32h0c0.19-0.05,0.43-0.07,0.71-0.07c0.7-0.01,1.59,0.17,2.33,0.5l0,0
			C50.37,82.3,50.48,82.19,50.58,82.08z"/>
		<path class="st4" d="M46.16,79.02c-0.2,0.08-0.3,0.32-0.23,0.54c0.07,0.22,0.29,0.33,0.49,0.25h0c0.44-0.18,1.04-0.29,1.69-0.29
			c0.74,0,1.55,0.16,2.32,0.47l0,0c-0.18-0.29-0.41-0.55-0.67-0.79c-0.5-0.24-1.25-0.49-1.65-0.52
			C47.38,78.62,46.71,78.8,46.16,79.02z"/>
	</g>
	<path class="st5" d="M32.09,62.21c-0.35-1.41-0.47-3.93-0.44-5.65c-0.03,0.03-0.07,0.06-0.1,0.09c-0.07,1.42-0.05,3.69,0.19,5.31
		c0.05,0.28,0.11,0.57,0.16,0.86c1.19-0.23,3.54,0.86,4.61,2.75C35.31,63.32,33.28,61.98,32.09,62.21z"/>
	<path class="st5" d="M43.59,62.21c0.39-1.41,0.71-3.93,0.72-5.65c0.03,0.03,0.07,0.06,0.1,0.09c0.04,1.42-0.18,3.69-0.46,5.31
		c-0.06,0.28-0.12,0.57-0.18,0.86c-1.19-0.23-3.42,0.86-4.54,2.75C40.48,63.32,42.4,61.98,43.59,62.21z"/>
	<g>
		<path class="st4" d="M24.71,73.65c0.68,0,1.35,0.13,1.85,0.42c0.21,0.12,0.48,0.05,0.6-0.16c0.12-0.21,0.05-0.48-0.16-0.61
			c-0.7-0.41-1.51-0.55-2.3-0.55c-0.59,0-1.5,0.17-2.02,0.61c-0.12,0.22-0.23,0.46-0.31,0.73l0,0
			C22.93,73.87,23.83,73.65,24.71,73.65z"/>
		<path class="st4" d="M24.56,76.25c0.51,0,0.99,0.08,1.39,0.27c0.22,0.1,0.48,0.01,0.59-0.21c0.1-0.22,0.01-0.49-0.21-0.59
			c-0.55-0.26-1.16-0.35-1.77-0.35c-0.8,0-1.76,0.26-2.37,0.78c0.01,0.2,0.04,0.39,0.07,0.57l0,0
			C22.89,76.47,23.75,76.25,24.56,76.25z"/>
		<path class="st4" d="M25.07,79.02c0.4,0,0.78,0.06,1.11,0.19c0.23,0.09,0.48-0.02,0.57-0.25c0.09-0.23-0.02-0.48-0.25-0.57
			c-0.46-0.18-0.95-0.25-1.44-0.25c-0.67,0-1.5,0.2-2.01,0.63c0.14,0.19,0.28,0.35,0.44,0.51c0,0,0,0,0,0
			C24,79.12,24.55,79.02,25.07,79.02z"/>
	</g>
	<path class="st6" d="M37.83,54.53c9.58,0,14.97-8.48,16.64-12.67c0.99,1.17,2.32,1.24,3.7-0.47c1.48-1.83,3.25-6.07,3.42-8.81
		c0.16-2.53-1.53-3.66-3.01-3.25c0.31-3.73,0.46-8.25-1.59-14.68C54.64,7.27,45.96,2.12,37.83,2.12c-8.13,0-16.81,5.15-19.16,12.52
		c-2.04,6.43-1.89,10.95-1.59,14.68c-1.48-0.41-3.16,0.72-3.01,3.25c0.17,2.74,1.94,6.98,3.42,8.81c1.38,1.71,2.71,1.64,3.7,0.47
		C22.86,46.04,28.24,54.53,37.83,54.53z"/>
	<path class="st7" d="M44.25,44.04L44.25,44.04c0.18-0.18,0.18-0.47,0-0.65l0,0c-0.18-0.18-0.47-0.18-0.65,0l0,0
		c-1.01,1.03-3.4,2.02-5.77,2.01l0,0c-2.37,0.01-4.75-0.98-5.77-2.01l0,0c-0.18-0.18-0.47-0.18-0.65,0l0,0
		c-0.18,0.18-0.18,0.47,0,0.65l0,0c1.29,1.27,3.8,2.27,6.42,2.28l0,0C40.45,46.31,42.96,45.31,44.25,44.04L44.25,44.04z"/>
	<path class="st0" d="M26.28,25.84c1.15-1.01,2.63-1.4,3.96-1.4l0,0c1.13-0.01,2.14,0.31,2.63,0.67l0,0
		c0.25,0.18,0.59,0.12,0.77-0.12l0,0c0.18-0.25,0.12-0.59-0.12-0.77l0,0c-0.78-0.56-1.96-0.87-3.28-0.88l0,0
		c-1.53,0-3.28,0.45-4.68,1.67l0,0c-0.23,0.2-0.26,0.55-0.05,0.78l0,0c0.11,0.13,0.26,0.19,0.42,0.19l0,0
		C26.04,25.97,26.17,25.93,26.28,25.84L26.28,25.84z"/>
	<path class="st0" d="M50.16,25.78c0.2-0.23,0.18-0.58-0.05-0.78l0,0c-1.4-1.22-3.14-1.67-4.68-1.67l0,0
		c-1.32,0.01-2.5,0.32-3.28,0.88l0,0c-0.25,0.18-0.3,0.52-0.12,0.77l0,0c0.18,0.25,0.52,0.3,0.77,0.12l0,0
		c0.49-0.36,1.5-0.67,2.63-0.67l0,0c1.33,0,2.8,0.39,3.95,1.4l0,0c0.11,0.09,0.24,0.14,0.36,0.14l0,0
		C49.9,25.97,50.05,25.91,50.16,25.78L50.16,25.78z"/>
	<path class="st0" d="M37.83-0.02c14.69,0,20.49,10.77,21.92,17.66c0.99,4.75,0.15,10.75-0.05,11.67c-0.4-0.13-0.68-0.11-1.12,0.02
		c-1.5,1.02-2.32,2.02-3.32,3.52c0.26-0.84,0.13-2.39-0.31-3.75c-0.34-1.05-0.68-2.68-0.9-4.41c-5.39-1.25-10.41-5.16-14.81-8.4
		c1.38,1.79,4.21,4.34,6.41,5.77c-7.25-3.06-10.62-6.59-12.53-9.42c-1.64,3.08-6.89,7.27-11.26,9.04c-0.08,2.68-0.61,5.77-1.15,7.43
		c-0.44,1.36-0.56,2.91-0.31,3.75c-1-1.51-1.82-2.5-3.32-3.52c-0.44-0.13-0.73-0.15-1.12-0.02c-0.2-0.92-1.04-6.92-0.05-11.67
		C17.34,10.74,23.14-0.02,37.83-0.02z"/>
	<path class="st4" d="M37.83,40.8c0.51,0,1.31-0.01,1.69-0.07c0.47-0.08,0.9-0.41,0.33-1.14c-0.57-0.74-1.62-1.15-2.02-1.15
		c-0.4,0-1.45,0.41-2.02,1.15c-0.57,0.74-0.14,1.06,0.33,1.14C36.52,40.79,37.32,40.8,37.83,40.8z"/>
	<path class="st4" d="M15.67,32.3c0.23-0.98,1.18-1.29,2.2-0.11c1.02,1.18,1.69,2.55,1.79,2.91c0.1,0.36-0.21,0.9,0.05,1.48
		c0.25,0.57,0.7,0.57,0.9,1.31c0.15,0.54,0.21,1.49,0.07,1.8c-0.05,0.1-0.21,0.06-0.27-0.21c-0.13-0.64-0.2-1.71-0.74-2.08
		c-0.57-0.39-0.84-1.46-0.92-2.03c-0.08-0.51-0.37-0.92-0.84-1.48c-0.41-0.49-1.19-0.67-1.56-0.38
		C15.74,33.98,15.49,33.06,15.67,32.3z"/>
	<path class="st4" d="M59.98,32.3c-0.23-0.98-1.18-1.29-2.2-0.11c-1.02,1.18-1.69,2.55-1.79,2.91c-0.1,0.36,0.2,0.9-0.05,1.48
		c-0.25,0.57-0.7,0.57-0.9,1.31c-0.15,0.54-0.21,1.49-0.07,1.8c0.05,0.1,0.21,0.06,0.27-0.21c0.13-0.64,0.2-1.71,0.74-2.08
		c0.57-0.39,0.84-1.46,0.92-2.03c0.08-0.51,0.37-0.92,0.84-1.48c0.41-0.49,1.19-0.67,1.56-0.38C59.91,33.98,60.16,33.06,59.98,32.3z
		"/>
	<g>
		<path class="st8" d="M42.72,32.91c0,2.14,1.48,3.88,3.32,3.88c1.83,0,3.31-1.74,3.31-3.88s-1.48-3.88-3.31-3.88
			C44.2,29.03,42.72,30.76,42.72,32.91z"/>
		<g>
			<path class="st9" d="M43.42,32.92c0,1.66,1.12,3.01,2.5,3.01c1.38,0,2.5-1.35,2.5-3.01c0-1.66-1.12-3.01-2.5-3.01
				C44.54,29.91,43.42,31.25,43.42,32.92z"/>
			<path d="M44.06,32.92c0,1.24,0.83,2.24,1.86,2.24c1.03,0,1.86-1,1.86-2.24c0-1.24-0.83-2.24-1.86-2.24
				C44.89,30.67,44.06,31.68,44.06,32.92z"/>
		</g>
		<path class="st8" d="M47.49,31.81c0,0.33-0.27,0.6-0.6,0.6c-0.33,0-0.6-0.27-0.6-0.6c0-0.33,0.27-0.6,0.6-0.6
			C47.22,31.21,47.49,31.48,47.49,31.81z"/>
		<path class="st0" d="M47.31,29.28c-0.39-0.16-0.84-0.26-1.28-0.26c-1.61,0-2.95,1.35-3.25,3.13c0.36-1.34,1.68-2.34,3.25-2.34
			c1.57,0,2.89,1,3.25,2.34c-0.1-0.59-0.32-1.12-0.62-1.58l0.01,0c0,0,0.01,0,0.01,0c0.53,0.07,1.21-0.15,1.92-1.04
			C49.15,30.01,47.98,29.56,47.31,29.28z"/>
	</g>
	<g>
		<path class="st8" d="M33.05,32.91c0,2.14-1.48,3.88-3.32,3.88c-1.83,0-3.32-1.74-3.32-3.88s1.48-3.88,3.32-3.88
			C31.57,29.03,33.05,30.76,33.05,32.91z"/>
		<g>
			<path class="st9" d="M32.35,32.92c0,1.66-1.12,3.01-2.5,3.01s-2.5-1.35-2.5-3.01c0-1.66,1.12-3.01,2.5-3.01
				S32.35,31.25,32.35,32.92z"/>
			<path d="M31.71,32.92c0,1.24-0.84,2.24-1.86,2.24c-1.03,0-1.86-1-1.86-2.24c0-1.24,0.83-2.24,1.86-2.24
				C30.87,30.67,31.71,31.68,31.71,32.92z"/>
		</g>
		<path class="st0" d="M28.46,29.28c0.39-0.16,0.84-0.26,1.28-0.26c1.61,0,2.95,1.35,3.25,3.13c-0.36-1.34-1.68-2.34-3.25-2.34
			c-1.57,0-2.89,1-3.25,2.34c0.1-0.59,0.32-1.12,0.62-1.58l-0.01,0c0,0-0.01,0-0.01,0c-0.53,0.07-1.21-0.15-1.92-1.04
			C26.61,30.01,27.79,29.56,28.46,29.28z"/>
	</g>
	<path class="st8" d="M31.29,31.81c0,0.33-0.27,0.6-0.6,0.6c-0.33,0-0.6-0.27-0.6-0.6c0-0.33,0.27-0.6,0.6-0.6
		C31.02,31.21,31.29,31.48,31.29,31.81z"/>
	
		<linearGradient id="SVGID_1_" gradientUnits="userSpaceOnUse" x1="4297.0522" y1="7.7891" x2="4314.5918" y2="7.7891" gradientTransform="matrix(1 0 0 1 -4260.3926 0)">
		<stop  offset="0" style="stop-color:#5F391B"/>
		<stop  offset="0.0589" style="stop-color:#6A4123"/>
		<stop  offset="0.2674" style="stop-color:#916342"/>
		<stop  offset="0.4265" style="stop-color:#AD7D5C"/>
		<stop  offset="0.5163" style="stop-color:#B88767"/>
		<stop  offset="0.5948" style="stop-color:#AF7F5F"/>
		<stop  offset="0.7204" style="stop-color:#9A6B49"/>
		<stop  offset="0.8765" style="stop-color:#7A4E2D"/>
		<stop  offset="1" style="stop-color:#5F391B"/>
	</linearGradient>
	<path class="st10" d="M37.97,3.02c3.06-0.61,8.14,1.42,11.41,3.83c2.6,1.91,3.53,3.56,4.82,5.82c-2.41-2.11-5.25-3.74-7.5-4.67
		c-2.49-1.03-8.06-2.16-8.88-2.45C36.51,5.09,36,3.41,37.97,3.02z"/>
	
		<linearGradient id="SVGID_2_" gradientUnits="userSpaceOnUse" x1="-282.6994" y1="9.6418" x2="-270.763" y2="9.6418" gradientTransform="matrix(-1 0 0 1 -250.8926 0)">
		<stop  offset="0" style="stop-color:#5F391B"/>
		<stop  offset="0.0589" style="stop-color:#6A4123"/>
		<stop  offset="0.2674" style="stop-color:#916342"/>
		<stop  offset="0.4265" style="stop-color:#AD7D5C"/>
		<stop  offset="0.5163" style="stop-color:#B88767"/>
		<stop  offset="0.5948" style="stop-color:#AF7F5F"/>
		<stop  offset="0.7204" style="stop-color:#9A6B49"/>
		<stop  offset="0.8765" style="stop-color:#7A4E2D"/>
		<stop  offset="1" style="stop-color:#5F391B"/>
	</linearGradient>
	<path class="st11" d="M30.9,4.73c-2.15-0.61-5.48,1.47-7.78,3.88c-1.83,1.91-2.35,3.79-3.25,6.05c1.76-2.34,3.57-3.84,5.09-4.86
		c1.76-1.19,5.25-2.07,6.05-2.54C31.89,6.74,32.28,5.13,30.9,4.73z"/>
</g>
</svg>
